<?xml version="1.0" encoding="utf-8"?>
<svg version="1.2" baseProfile="tiny-ps" xmlns="http://www.w3.org/2000/svg" width="299px" height="302px" viewBox="0 0 299 302" preserveAspectRatio="xMidYMid meet">
 <g fill="#0f1213">
  <path d="M0 151 l0 -151 149.50 0 149.50 0 0 151 0 151 -149.50 0 -149.50 0 0 -151z m201.75 111.75 l12.75 -12.75 -13.25 -13.25 -13.25 -13.25 -2.25 2.25 c-1.25 1.20 -2.25 2.45 -2.25 2.75 0 0.30 4.30 4.80 9.50 10 12.55 12.55 12.55 10.45 0 23 l-9.50 9.50 2.10 2.20 c1.20 1.25 2.45 2.25 2.80 2.25 0.30 0.05 6.35 -5.70 13.35 -12.70z m55.75 6.25 l0 -4.50 -19 0 -19 0 0 4.50 0 4.50 19 0 19 0 0 -4.50z m-132.50 -20.35 c3.95 -10.10 4.70 -13.75 4.65 -23.40 -0.05 -8 -0.15 -8.90 -1.80 -15.25 -0.95 -3.70 -2.65 -9.20 -3.85 -12.25 -5.40 -14.05 -6.90 -20.30 -7.30 -31.10 -0.35 -8.35 0.25 -16.50 1.60 -22.15 0.40 -1.80 0.95 -7.20 1.15 -12 0.45 -9.65 0.85 -11.25 4.75 -18.15 1.80 -3.25 1.90 -3.35 3.85 -3.35 l2.05 0 -0.25 2.10 c-0.10 1.20 -0.50 3.40 -0.85 4.95 -0.60 2.45 -0.55 3.40 0.20 7.20 2.85 14.50 11 24.05 22.65 26.50 5 1.05 11.35 0.95 15.15 -0.25 2.35 -0.75 4.50 -1 8.65 -1 7.45 0 10.95 0.70 15.90 3.15 4.05 2.05 4.20 2.15 4.35 4 l0.15 1.85 -2.05 0 c-1.15 0 -2.50 -0.25 -3.05 -0.50 -1.70 -0.95 -1.05 -0.20 1.70 1.90 3.60 2.70 6.20 5.45 7.70 8 1.05 1.75 1.35 3.10 1.65 7.65 0.50 6.30 1.45 8.80 4.50 11.80 4.10 3.95 11.95 7.65 16.30 7.65 0.95 0 2.55 -0.35 3.50 -0.75 l1.80 -0.75 -9.05 -6.60 c-8.80 -6.50 -9 -6.70 -9.05 -8.45 0 -2.65 2.65 -4.95 5.65 -4.95 1.90 0 3.05 0.65 10.85 6.05 4.80 3.35 9.80 6.60 11.15 7.25 l2.35 1.25 1.25 -1.35 c1.70 -1.80 3.45 -5.70 5.05 -11 1.70 -5.90 1.75 -7.45 0.10 -10.20 -0.75 -1.25 -9.25 -12.10 -18.90 -24.15 -14.90 -18.65 -17.50 -21.70 -17.50 -20.45 0 1.15 -0.65 2.25 -2.55 4.35 l-2.60 2.80 2.05 4.10 c1.10 2.25 3.30 6 4.80 8.35 2.10 3.20 2.80 4.70 2.80 6.15 0 1.80 -0.05 1.85 -1.85 1.85 -1.60 0 -2.30 -0.40 -4.40 -2.40 -1.35 -1.35 -4.85 -4.65 -7.75 -7.40 l-5.25 -5.05 -4.65 -0.30 c-8.25 -0.60 -13.90 -2.65 -17.60 -6.35 -1.95 -1.95 -2 -2.10 -1.95 -5.35 0 -1.90 0.30 -4.40 0.60 -5.65 l0.60 -2.20 -5.60 -5.65 c-5.30 -5.30 -5.65 -5.80 -5.65 -7.65 0 -1.95 0.05 -2 1.70 -2 1.10 0 4.50 1.30 9.15 3.45 4.05 1.90 9.55 4.15 12.15 5 6.20 2 8.50 3.40 14.05 8.50 l4.55 4.25 2.20 -0.60 c1.20 -0.35 2.90 -0.60 3.70 -0.60 1.80 0 1.80 -0.20 0.70 -6 -0.90 -4.95 -2.35 -8.20 -4.15 -9.45 -0.70 -0.50 -3.75 -2.20 -6.80 -3.80 -3 -1.60 -8.15 -4.60 -11.35 -6.60 l-5.80 -3.65 -2.20 1.40 c-3.20 2.20 -5.50 2.75 -9.85 2.50 -2.85 -0.20 -4.65 -0.65 -7.20 -1.80 -5.35 -2.45 -6.35 -3.35 -6.35 -5.60 0 -1.05 0.20 -2.05 0.45 -2.20 0.75 -0.45 1 -4.45 0.45 -7.05 -0.25 -1.35 -1.25 -4.10 -2.20 -6.05 -1.75 -3.70 -5.75 -8.40 -6.85 -8.10 -1.10 0.40 -3.80 5.50 -4.40 8.35 -0.75 3.55 0 10.95 1.45 14.25 0.55 1.25 2.15 3.35 3.55 4.65 2.05 1.95 2.55 2.75 2.55 4.05 0 1.50 -0.10 1.60 -1.85 1.60 -2.45 -0.05 -7.05 -1.90 -9.65 -4 -2.10 -1.65 -2.10 -1.65 -3.70 -0.80 -4.90 2.65 -18.50 13 -23.30 17.80 -13.90 13.80 -19.40 29.95 -17.55 51.40 0.75 8.45 2.15 17.60 3.55 23.15 0.55 2.15 1 4.55 1 5.40 0 1.45 -0.15 1.55 -1.70 1.55 -2.20 0 -2.90 -0.90 -6.70 -8.40 -6.45 -12.70 -8.10 -20.10 -8.10 -35.80 0 -19.15 5 -31.30 18.40 -44.70 2.85 -2.80 6.05 -5.75 7.15 -6.45 1.10 -0.70 1.90 -1.40 1.80 -1.50 -0.40 -0.40 -8.10 2.45 -12.20 4.55 -7.45 3.70 -13.65 8.85 -19.90 16.30 -11.15 13.35 -16.20 28 -14.80 42.75 1.45 15.25 9.45 27.20 30.30 45.10 15.15 13 19.30 17.65 23.80 26.90 2.95 6.05 4.75 12.70 5.20 19.65 0.20 2.80 0.45 5.10 0.55 5.10 0.05 0 1.05 -2.40 2.20 -5.35z m-85.80 -104 c6.30 -9.30 6.70 -9.90 13.95 -19.80 5.85 -8 8.40 -11.25 13.55 -17.45 6.05 -7.25 17.30 -18.65 21.10 -21.35 1.45 -1 4 -2.85 5.75 -4.10 3.70 -2.70 10.40 -6.30 14.70 -7.90 3.50 -1.30 9.70 -1.80 14.25 -1.15 3.15 0.45 3.25 0.45 4.55 -0.95 1.35 -1.45 2.60 -5.15 3.40 -10.30 0.55 -3.50 1.10 -4.80 2.90 -6.75 l1.25 -1.30 -2.90 -0.45 c-1.65 -0.20 -6.65 -0.35 -11.20 -0.30 -9.65 0.05 -13.90 0.80 -21.10 3.70 -9.75 3.90 -12.55 5.60 -24.65 15.15 -14.35 11.35 -14.90 11.75 -21.50 15.20 -5.15 2.65 -4.95 2.85 2.50 2.50 2.85 -0.15 5.60 -0.65 7.50 -1.30 1.60 -0.60 3.60 -1.10 4.35 -1.10 1.25 0 1.40 0.15 1.40 1.80 0 2.05 -1.55 4.10 -10.10 13.10 -6.45 6.80 -13.30 16 -17.25 23.10 -1.45 2.55 -5.65 16.65 -6.35 21.25 -0.20 1.10 -0.45 2.60 -0.60 3.40 -0.15 0.75 -0.15 1.35 -0.05 1.35 0.15 0 2.20 -2.85 4.55 -6.35z m147.55 -22.65 c-0.50 -0.55 -1.10 -0.85 -1.35 -0.70 -0.60 0.40 0.55 1.70 1.50 1.70 0.65 0 0.60 -0.15 -0.15 -1z m17.70 -46.35 c4.25 -4.65 12.40 -13.35 18.10 -19.40 5.70 -6.05 10.90 -11.65 11.55 -12.50 2.30 -2.95 -19.20 13.80 -33.30 25.95 -8.15 7 -10.40 9.20 -10.20 9.85 0.20 0.65 5 4.40 5.65 4.40 0.30 0.05 3.95 -3.70 8.20 -8.30z m-32 5.60 c0.80 -0.40 2.15 -1.90 3.05 -3.35 0.90 -1.45 2.60 -4.15 3.80 -6 1.20 -1.85 2.20 -3.55 2.20 -3.70 0 -0.70 -4.30 -6.10 -7.70 -9.65 -6.05 -6.30 -12.55 -9.90 -22.15 -12.35 -5.55 -1.40 -7.50 -1.50 -3.90 -0.25 3.15 1.15 6.40 2.80 9.10 4.60 1.15 0.80 2.65 1.65 3.35 1.95 1 0.35 1.30 0.80 1.30 2.05 0 0.90 0.80 4 1.70 6.95 1.50 4.55 2.15 7.65 3.60 16.85 0.25 1.65 2.20 3.65 3.55 3.65 0.40 0 1.35 -0.35 2.10 -0.75z m-96.20 -22.95 c0.85 -0.60 0.25 -1 -6.30 -4.30 -3.95 -2 -7.40 -3.80 -7.70 -4 -0.25 -0.20 -1.85 -1.10 -3.45 -2 -1.65 -0.90 -4.55 -2.75 -6.50 -4.10 l-3.55 -2.45 2.50 2.30 c1.40 1.25 4.65 3.80 7.25 5.65 4.80 3.40 15.30 9.60 16.30 9.60 0.25 0 0.95 -0.30 1.45 -0.70z"/>
  <path d="M233.70 173.05 c-1.65 -0.85 -3.95 -2.40 -5.10 -3.45 -1.85 -1.70 -2.10 -2.20 -2.10 -4.05 0 -3.65 0.50 -4.05 4.75 -4.05 3.20 0 3.85 0.15 5.20 1.30 2.20 1.85 4.65 7.05 4.45 9.50 -0.15 1.90 -0.20 1.95 -2.15 2.10 -1.45 0.10 -2.85 -0.30 -5.05 -1.35z"/>
 </g>
 <g fill="#369adf">
  <path d="M120.85 253.40 c-0.40 -9.45 -1.80 -15.45 -5.30 -22.65 -4.50 -9.25 -8.65 -13.90 -23.80 -26.90 -13.55 -11.65 -21.40 -20.55 -25.65 -29.10 -3.05 -6.10 -4.10 -9.85 -4.70 -16.75 -1.50 -16.65 3.30 -31.15 14.90 -45.05 9.65 -11.60 19.40 -17.65 34.50 -21.45 4.35 -1.10 8.15 -1.95 8.45 -1.85 0.25 0.10 -0.60 0.90 -2 1.75 -12 7.50 -23.05 18.95 -27.80 28.95 -4.75 9.95 -6.45 22.55 -4.90 36.55 0.95 8.70 2.70 14.15 7.80 24.20 1.80 3.50 3.70 6.75 4.25 7.25 1 0.85 1 0.85 0.75 -0.10 -1.75 -6.05 -3.05 -13.45 -4.10 -23.20 -3.35 -31.70 4.80 -50.15 30 -68.15 4.15 -2.90 9 -6.25 10.85 -7.40 l3.35 -2.05 2.05 2.05 c1.95 1.95 5.45 3.90 8.50 4.75 1 0.30 0.75 -0.15 -1.40 -2.20 -1.50 -1.45 -3.10 -3.60 -3.65 -4.80 -2.25 -5.05 -2.50 -16 -0.50 -20.55 1.50 -3.35 3.40 -5.70 4.65 -5.70 3.85 0 9.30 7.60 10.90 15.20 0.65 3.25 0.30 8.55 -0.65 9.75 -0.75 0.90 0.85 2.20 5.55 4.40 6.40 3 9.75 2.75 15.25 -0.95 l2.90 -1.95 6.60 4.20 c3.65 2.30 9.50 5.70 13 7.60 3.55 1.90 6.80 4 7.35 4.70 1.30 1.90 2.40 5.65 3.20 10.85 l0.65 4.60 16.95 21.15 c9.30 11.65 17.65 22.30 18.55 23.60 2.80 4.15 2.70 7.15 -0.40 16.60 -1.70 5.10 -3.85 8.75 -5.70 9.75 -1.15 0.65 -1.60 0.55 -4.40 -0.85 -1.70 -0.85 -7.05 -4.25 -11.85 -7.60 -4.80 -3.35 -9 -6.05 -9.35 -6.05 -1.05 0 -4.50 3.45 -3.85 3.85 4.10 2.95 18.80 13.95 19.20 14.40 0.40 0.50 -0.10 0.95 -2.10 1.95 -6.30 3.15 -17.05 0.25 -23.90 -6.35 -3.05 -3 -4 -5.50 -4.50 -11.80 -0.45 -6.15 -1.25 -8.10 -4.85 -11.75 -4.20 -4.30 -13.85 -10.50 -19.30 -12.45 -0.30 -0.10 -0.45 -0.35 -0.25 -0.55 0.55 -0.65 8 1.05 13 2.90 5.25 2 5.60 2.05 5.10 1.25 -0.60 -1.05 -8.40 -4.35 -11.40 -4.90 -4.85 -0.90 -10.75 -0.70 -14.35 0.50 -2.45 0.75 -4.55 1 -8.70 1 -15.15 0.05 -24.05 -5.60 -29.45 -18.60 -3.10 -7.55 -4.05 -15.25 -2.55 -20.25 0.90 -2.95 0.85 -2.70 0.25 -2.70 -0.60 0 -3.85 5.80 -5.40 9.70 -1.10 2.65 -1.30 4.25 -1.65 11.80 -0.20 4.80 -0.75 10.20 -1.15 12 -1.30 5.50 -1.95 13.75 -1.55 20.75 0.45 9.45 2.15 16.25 7.25 29.50 1.20 3.05 2.90 8.55 3.85 12.25 1.70 6.50 1.75 7.10 1.80 16.50 0.10 10.65 -0.40 13.60 -3.55 22.30 -2.05 5.60 -5.65 13.70 -6.10 13.70 -0.20 0 -0.50 -3.45 -0.65 -7.60z m118.40 -80.95 c0.55 -0.80 -2.60 -6.75 -4.30 -8.15 -3 -2.55 -7.65 -1.35 -6.70 1.75 0.40 1.20 4.75 4.55 7.75 5.90 2.60 1.20 2.85 1.25 3.25 0.50z m-26.45 -25.20 c-0.15 -0.45 -1.15 -2.05 -2.20 -3.65 -2.70 -3.95 -6.40 -10.95 -7.15 -13.45 l-0.60 -2.10 2.85 -3.05 c1.55 -1.70 2.80 -3.25 2.80 -3.55 0 -0.55 0.30 -0.60 -3.45 0.55 l-3.20 0.95 -4.90 -4.60 c-5.90 -5.45 -8.15 -6.85 -14.45 -8.90 -2.60 -0.85 -8.10 -3.10 -12.20 -5 -4.10 -1.90 -7.55 -3.35 -7.70 -3.25 -0.40 0.40 6.10 7.45 9.05 9.85 1.40 1.20 2.75 2.30 3 2.45 0.20 0.20 -0.10 1.35 -0.65 2.60 -0.55 1.30 -1.15 3.65 -1.30 5.30 -0.35 2.95 -0.35 2.95 1.70 5 3.85 3.85 9.40 5.85 17.70 6.45 l4.65 0.30 5.25 5.05 c2.90 2.75 6.40 6.05 7.75 7.40 2.55 2.45 3.60 3 3.05 1.65z"/>
  <path d="M174.30 76.90 c-0.50 -7.45 -3.70 -12.75 -10.55 -17.50 -2.85 -1.95 -3.75 -2.90 -3.75 -3.75 0 -0.80 -0.40 -1.35 -1.30 -1.65 -0.70 -0.30 -2.20 -1.15 -3.35 -1.95 -6.35 -4.30 -16.40 -7.50 -28.95 -9.10 -4.75 -0.60 -6.40 -1.10 -5.85 -1.70 0.20 -0.15 3.75 -0.05 8 0.25 25.60 1.70 36.90 5.40 46.50 15.35 3.35 3.40 8.95 10.40 8.95 11.15 0 0.20 -1.05 2.05 -2.40 4.05 -1.30 2.05 -3.15 5 -4.10 6.60 -0.95 1.55 -1.95 2.85 -2.30 2.85 -0.35 0 -0.65 -1.70 -0.90 -4.60z"/>
 </g>
 <g fill="#0c3f68">
  <path d="M32.45 158.25 c-0.70 -6 4.30 -28.65 7.70 -34.75 3.95 -7.10 10.80 -16.30 17.25 -23.10 5.35 -5.65 10.10 -11.10 10.10 -11.60 0 -0.15 -0.80 0 -1.80 0.45 l-1.75 0.75 1.35 -1.65 c0.70 -0.85 1.90 -1.90 2.60 -2.30 2 -1.05 8.15 -5.70 11.65 -8.80 9.20 -8.10 21.85 -14.80 30.50 -16.25 3.90 -0.60 20.45 -0.65 21.40 -0.05 1.45 0.95 -0.75 10.20 -3 12.65 -1.45 1.50 -1.45 1.50 -5.05 1.10 -4.95 -0.60 -9.75 -0.50 -12.15 0.25 -3.80 1.20 -13.05 6.10 -16.65 8.80 -2 1.50 -4.60 3.40 -5.75 4.20 -3.35 2.30 -14.85 14 -20.65 20.95 -5.85 7.05 -9.35 11.60 -18.25 23.90 -4.50 6.20 -14.50 21 -16.55 24.50 -0.50 0.80 -0.90 1.25 -0.95 0.95z"/>
  <path d="M168.80 83.50 c-2 -0.65 -3.25 -1.90 -3.50 -3.70 -1.40 -9 -2.10 -12.25 -3.60 -16.80 -1.70 -5.30 -2.10 -8 -1.25 -8 1.05 0 8.15 5.25 10.05 7.40 3.40 3.95 4.90 7.65 5.40 13.25 0.20 2.75 0.20 5.20 -0.05 5.65 -0.45 0.80 -4.15 2.70 -5.10 2.65 -0.25 0 -1.15 -0.25 -1.95 -0.45z"/>
  <path d="M68.75 58.20 c-11.50 -6.30 -20.45 -13.35 -29.15 -22.90 -3.80 -4.10 -8.10 -9.75 -8.10 -10.55 0 -0.40 3.10 2.20 8.75 7.20 4.60 4.15 15.60 12.10 20 14.55 1.65 0.90 3.25 1.80 3.50 2 0.30 0.20 4.15 2.20 8.65 4.45 4.45 2.25 8.10 4.25 8.10 4.45 -0.05 0.45 -4.75 4.10 -5.35 4.10 -0.20 0 -3.10 -1.50 -6.40 -3.30z"/>
 </g>
 <g fill="#f65056">
  <path d="M45.35 90.50 c-2.90 -0.50 -3.50 -0.95 -1.85 -1.35 1.70 -0.45 12.35 -5.80 14.85 -7.50 2.35 -1.60 4.90 -3.55 14.90 -11.45 12.10 -9.55 14.90 -11.25 24.65 -15.15 7.85 -3.15 11.30 -3.70 23.35 -3.70 6.35 -0.05 11.70 0.20 13.50 0.55 3.10 0.65 4.55 1.50 3.30 2 -1.70 0.60 -4.60 3.90 -5.40 6.05 l-0.80 2.35 -8.05 -0.20 c-11.70 -0.30 -16.90 0.70 -25.35 4.95 -4.90 2.40 -13.30 8.10 -17.40 11.70 -7.45 6.60 -13.10 10.05 -18.70 11.55 -2.85 0.75 -12.95 0.85 -17 0.20z"/>
  <path d="M194.20 85.20 c-6.20 -4.25 -6.80 -5.10 -5.05 -7.50 1.70 -2.40 15.85 -14.70 26.45 -23 13.15 -10.30 32.65 -24.70 33.50 -24.70 0.70 0 -1 2.05 -7 8.45 -7.40 7.85 -14.25 15.20 -29.05 31.15 -13.50 14.55 -15.80 16.90 -16.45 16.90 -0.25 0 -1.35 -0.60 -2.40 -1.30z"/>
 </g>
 <g fill="#fcfcfc">
  <path d="M184.65 275.20 c-2 -2 -3.65 -3.90 -3.65 -4.20 0 -0.30 4.50 -5 10 -10.50 5.50 -5.50 10 -10.20 10 -10.50 0 -0.30 -4.75 -5.25 -10.50 -11 l-10.50 -10.50 3.75 -3.75 c2.05 -2.05 3.95 -3.75 4.25 -3.75 0.65 0 29 28.35 29 29 0 0.45 -28.30 29.05 -28.60 28.95 -0.10 0 -1.80 -1.70 -3.75 -3.75z"/>
  <path d="M218 269 l0 -6 20.50 0 20.50 0 0 6 0 6 -20.50 0 -20.50 0 0 -6z"/>
  <path d="M185.15 124.50 c-2.20 -1.30 -2.60 -3.20 -1.10 -4.80 0.60 -0.65 1.30 -1.20 1.55 -1.20 0.50 0 4.40 3.50 4.40 4 0 0.50 -2.35 3 -2.85 3 -0.20 0 -1.15 -0.45 -2 -1z"/>
 </g>
</svg>